<svg xmlns="http://www.w3.org/2000/svg" width="160.823" height="91.672" viewBox="0 0 160.823 91.672">
  <g id="Group_123" data-name="Group 123" transform="translate(-41.983 -139.465)">
    <path id="Path_157" data-name="Path 157" d="M136.424,175.12a9.87,9.87,0,0,0,.547,1.519c-.526.278-4.249,1.628-5.042,1.943l-3.106,1.206c-.692.247-.5.322-.616,1.146-.033.225-.084.51-.141.774-.065.3-.171.5.144.4l3.77-1.468c.207-.083.441-.149.67-.241.485-.2,4.605-1.832,5.049-1.935a4.43,4.43,0,0,0,.322.893l.346.929a20.277,20.277,0,0,0-2.173.014c-1.766.286-.655,2.262-1.121,2.706-.394.376-1.509-.531-2.233.743-.532.937-.09,2.716-.467,3.116a1.763,1.763,0,0,1-2.485.079,4.56,4.56,0,0,1-.464-.447c-1.945-1.964-3.772-2.259-5.591-.095-.674.8-1.175,1.659-2.35,1.659a1.26,1.26,0,0,1-.965-.371c-.666-.532-1.129-2.059-2.132-2.059a1.516,1.516,0,0,0-.79.365,1.651,1.651,0,0,0-2.49.547c-.128-.086-.225-.161-.354-.254-1.135-.818-1.578,1.711-2.8,1.711-.452,0-.73-.535-.818-.943-.234-1.084.452-2.4-2.95-2.455-1.215-.02-1.174-1.392-1.316-2.268a7.126,7.126,0,0,0-.36-1.462c-.286-.6-.484-.889-1.176-.889a2.563,2.563,0,0,0-1.02.5c-1.327,1.224.568,3.742-.616,4.3-.5.238-1.5-.072-1.921.447-.37.457-.244,1.236-.2,1.8a4.793,4.793,0,0,1-.559-.363c-2.109-1.4-2.6-.542-3.28-.486l-.419-.432c-2.206-2.289-1.855-.783-5.351-.783a23.267,23.267,0,0,1-2.342-.148c-.2-.088-.272-.746-.315-.961-.3-1.533-.475-1.785,2.047-1.44.692.095,1.885.5,2.488.174.431-.23.1-.6-.056-.906A12.686,12.686,0,0,1,89,180.7c-.613-.25-2.5-1.69-3.036-.833-.458.736.562,1.841-.694,3.314l-.675.722a2.633,2.633,0,0,1-1.616.935c-.2,0-.194-.061-.486-.061a4.017,4.017,0,0,1,.113-.737c.049-.293.084-.478.144-.767.051-.243.123-.442.193-.718a32.231,32.231,0,0,1,1.32-4.147l.821-1.912a33.28,33.28,0,0,1,3.828-6.194l1.234-1.5a26.437,26.437,0,0,1,2.719-2.748,24.964,24.964,0,0,1,1.966-1.678,44.288,44.288,0,0,1,4.4-2.889,32.017,32.017,0,0,1,7.847-3.085,29.964,29.964,0,0,1,11.327-.612l1.688.255a35.955,35.955,0,0,1,6.067,1.646c.448.2.924.347,1.377.566.228.11.41.164.645.266l1.3.644a23.557,23.557,0,0,1,3.1,1.755c.22.138.345.219.55.361l4.06,3.168a23.714,23.714,0,0,1,1.7,1.7c.114.124.112.149.215.271a3.186,3.186,0,0,0,.241.245,24.934,24.934,0,0,1,2.145,2.653,34.046,34.046,0,0,1,3.766,6.864c.293.688.11.822-.089,1.439a23.975,23.975,0,0,0-.559,4.239c-.078.818-.139,1.668-.807,2.109-2.356,1.557-1.509-3.847-1.865-5.014a.872.872,0,0,0-.42-.612,4.007,4.007,0,0,0-2.186-.183l.267-.1c.407-.158.179-.384.045-.76l-1.014-2.631c-.1-.259-.181-.4-.262-.649-.157-.478-.377-.892-.493-1.39C137.346,174.679,136.9,175.08,136.424,175.12ZM70.467,183.5l5.6.963a4.887,4.887,0,0,0,.841.131,3.184,3.184,0,0,1-4.355.651l-1.726-1.432A2.308,2.308,0,0,1,70.467,183.5Zm86.121,2.187c-.768,0-.942-.81-1.923-1.479-.117-.08-.041-.013-.142-.1.564-.047,2.472-.486,2.854-.486C157.224,183.944,157.546,185.689,156.588,185.689Zm-76.95-.547c.461,0,.968.182,1.458.182l-.04.67c-.247-.122-.478-.257-.715-.4a3.449,3.449,0,0,1-.7-.452m-37.655,4.313v-1.331c.04-.665.189-1.315.665-1.527.774-.345,1.524.348,2.007.672.261-.175.242-.294.449-.462a2.243,2.243,0,0,1,2.1-.509c-.078-.943-.592-1.519,1.215-1.519,1.427-2.131,2.418-1.613,3.306.4.6,1.369,1.181.224,1.65-.485.114-.173.172-.287.278-.451l.672-.786c1.058-.991,2.047-.143,2.857.7a13.137,13.137,0,0,1,1.259,1.535,2.983,2.983,0,0,0,.736-.539c1.01-.759,1.581-.28,2.376.525.688.7,2.142,1.253,2.473-.109a5.76,5.76,0,0,1,.294-1.468c.259-.486.617-.419,1.141-.621.388-.15.866-.509,1.179-.582v-.121a5.411,5.411,0,0,1-.856-.116c-.227-.076-.132-.043-.266-.22l-.7-.757c-.14-.183-.359-.3-.425-.547.354-.082,1.378-.729,1.579-.729l5.845,1.018c1.315.267,2.573.409,3.9.657.665.125,1.208.258,1.907.34.787.092,3.221.658,3.9.658.061-.262.123-.535.182-.79-.291-.007-3.636-.916-4.152-1.071-.869-.261-1.746-.409-2.58-.7a2.381,2.381,0,0,1-.8-1.084c.048-.023,1.139-.364,1.154-.364.072,0,.716.208.85.243l1.724.462c.312.078.55.128.827.205l1.674.452a15.813,15.813,0,0,1,1.666.46l.547-1.7a2.094,2.094,0,0,1-.589-.2c-.2-.078-.333-.115-.543-.186l-9.662-3.517c-.386-.149-.65-.257-1.071-.387-.739-.229-1.373-.54-2.127-.789-.95-.314-1.085-.266-1.41-.776a5.3,5.3,0,0,1-.814-1.373,14.009,14.009,0,0,1,1.64-.486,28.072,28.072,0,0,1,2.954,1.054l6.261,2.242c.17.066.268.113.434.173.306.111.692.228.988.348.326.133.586.214.941.335l1.912.7c.641.213,1.274.521,1.936.675.058-.251.173-.37.243-.668a5.749,5.749,0,0,1-.931-.4l-4.937-2.29c-.226-.1-.23-.141-.329-.339a3.361,3.361,0,0,1-.362-.914c.482,0,.7-.122,1.154-.122.222,0,5.363,2.629,6.073,2.794.1-.423.449-.735.547-1.154-.188-.1-.294-.176-.506-.283a5.663,5.663,0,0,1-.49-.3l-2.971-1.705c-1.011-.537-1.97-1.148-2.958-1.719-1.069-.618-4.14-2.3-4.942-2.832l-1.961-1.137c-.328-.161-.228-.086-.367-.423-.083-.2-.151-.335-.242-.548a7.935,7.935,0,0,1-.442-1.077c.618,0,1.159-.182,1.822-.182l1.395.792c1.773,1.024,3.572,2,5.322,3.06.164.1.234.166.409.259s.311.144.479.25c1.059.67,2.91,1.69,4.015,2.3l.89.507c.157.091.262.184.447.282l1.316.749a4.087,4.087,0,0,0,.486-.79l-3.244-2.283c-.3-.2-.538-.38-.826-.571s-.495-.372-.777-.56c-.227-.151-.7-.387-.79-.607-.041-.1-.293-1.011-.291-1.025.02-.15.2-.059.519-.056.791.008.788.059,1.5.571.157.113.259.2.416.313.918.664,1.887,1.257,2.794,1.943a15.173,15.173,0,0,0,1.614,1.119,4.444,4.444,0,0,1,.607-.85l-.865-.714c-.149-.142-.266-.229-.429-.361l-1.291-1.078c-.157-.123-.278-.227-.432-.357-.1-.085-.115-.111-.227-.2l-6.6-5.546c-.138-.109-.267-.207-.4-.327l-1.716-1.442c-.443-.337-.4-.431-.547-1.032a8.746,8.746,0,0,1-.242-1.276c.356,0,.415.055.727.063a1.9,1.9,0,0,1,1.292.287c.156.133.271.227.429.361l5.925,4.947c.16.129.283.239.434.356s.224.21.39.339l5.076,4.217a2.71,2.71,0,0,1,.729-.729c-.074-.276-.479-.57-.683-.774-.587-.587-4.125-4.016-4.267-4.3a7.761,7.761,0,0,1-.152-1.245c.11.009,1.088.233,1.182.275a6.26,6.26,0,0,1,.716.681c.646.646,3.806,3.918,4.236,4.206a1.291,1.291,0,0,0,.607-.547c-.085-.127-.262-.324-.383-.467L82,152.958c-.492-.611-.561-.452-.651-1.293l-.069-1.51c.448.1.9.2,1.337.3a1.382,1.382,0,0,1,.945.7l1.106,1.323c.14.16.22.277.363.427l4.059,4.809c.147.188.226.247.365.425l1.469,1.75c.155.174.243.274.393.458.13.159.237.28.359.431.641.793,1.662,1.85,2.178,2.62.362-.1.555-.512.911-.607-.372-.556-4.253-6.056-4.265-6.075l.074-1.335a4.471,4.471,0,0,1,1.1.415c.246.114.22.148.373.356.937,1.279,1.8,2.674,2.749,3.932a13.326,13.326,0,0,1,1.18,1.735c.289-.024.487-.237.729-.364a6.609,6.609,0,0,0-.544-.975c-.1-.166-.148-.3-.257-.472l-6.8-11.784c-.607-.928-.049-.914-.049-2.441a7.4,7.4,0,0,1,1.076.443c.663.287.461.079.826.692l1.945,3.34c.1.19.158.288.264.465.2.329.385.644.563.956l3.037,5.223c.093.161.168.293.264.465l1.114,1.923a7.353,7.353,0,0,1,.507.951c.609-.051,1.049-.591,1.64-.729-.914-1.728-1.775-3.938-2.672-5.71-.652-1.287-.144-1.068-.061-2.065a4.274,4.274,0,0,1,.925.533c.4.261.349.4.553.844.433.935,2.54,5.249,2.652,5.73.206-.048.313-.128.547-.182L97.138,144.5c-.207-.553-.223-.484-.032-1.047l.327-1.01a4.978,4.978,0,0,1,.862.535c.457.285.383.329.57.827.572,1.521,1.059,3.082,1.666,4.59.073.182.092.292.159.509l3.3,9.089a9.233,9.233,0,0,1,1.943-.547c-.08-.342-.169-.594-.27-.945-.093-.326-.14-.6-.229-.925-.156-.569-.317-1.2-.495-1.814-.127-.435-.951-3.249-.951-3.666,0-.136.428-.907.486-1.154.331.088.546.4.775.622a4.6,4.6,0,0,1,.743,2.051c.1.374.2.727.29,1.107l.6,2.195c.12.412.539,1.823.568,2.166.411-.034.865-.209,1.275-.243-.146-.627-.239-1.276-.379-1.929l-.373-1.874c-.151-.656-.243-1.186-.366-1.881-.228-1.282-.565-2.515-.773-3.783-.106-.645-.24-1.221-.38-1.867-.118-.543-.7-3.416-.7-3.79a6.423,6.423,0,0,1,.729-1.336c.3.08.464.395.683.593.451.409.285.107.448.828l1.264,6.268c.432,2.137.895,4.155,1.267,6.326a16.879,16.879,0,0,1,.409,2.082,6.47,6.47,0,0,0,.677-.052c.283-.021.415.075.406-.229-.011-.375-.113-.863-.112-1.3l-.424-5.1c-.014-.271-.068-.343-.067-.67,0-.591.535-.813.674-1.334a3.133,3.133,0,0,1,.594.682c.353.422.26.29.327.948.074.73.092,1.54.2,2.292l.4,4.582h.668l-.061-15.428a10.934,10.934,0,0,1,.972-1.4,3.287,3.287,0,0,1,.521.633c.229.3.288.275.359.734.116.75.031,11.539.031,13.454,0,.286-.155,2,.243,2,1.029,0,.827.18.913-1.091l.421-4.742c.026-.387.077-.812.113-1.162.067-.655-.032-.534.359-.916.193-.189.421-.522.684-.592.085.366.547.961.547,1.215,0,1-.181,1.907-.245,2.853a43.713,43.713,0,0,1-.423,4.558c.387.032.887.174,1.275.182.074-.316.121-.784.174-1.1.064-.387.13-.718.191-1.085.241-1.463.432-2.954.713-4.389l1.445-8.638c.084-.376.345-.435.591-.685a4.654,4.654,0,0,1,.652-.563c.526.993.659,1.04.529,1.8-.056.328-.1.757-.164,1.111s-.125.685-.182,1.032c-.112.684-.236,1.491-.348,2.143-.243,1.414-.525,2.849-.7,4.286l-.713,4.268a15.825,15.825,0,0,0-.309,2.121,6.409,6.409,0,0,0,1.154.243,8.987,8.987,0,0,0,.3-1.1l1.459-5.465a4.286,4.286,0,0,1,.153-.576c.133-.306.871-.7,1.128-.876a5.143,5.143,0,0,1,.364,1.276c0,.47-.8,3.033-.926,3.63l-.957,3.538a10.629,10.629,0,0,1,1.215.364,3.968,3.968,0,0,1,.2-.529l.566-1.56c.124-.378.276-.707.373-1.024.126-.408.246-.658.379-1.018.066-.179.11-.371.18-.548.477-1.19.851-2.412,1.319-3.6.8-2.03,1.49-4.182,2.291-6.212.242-.614.156-.408.655-.742a2.546,2.546,0,0,1,.9-.5,6.587,6.587,0,0,1,.364,1.336c0,.306-.862,2.307-1.04,2.848-.611,1.858-1.7,4.777-2.4,6.593l-1.02,2.806c-.278.842-.821,2.007-1.009,2.817.4.033.846.395,1.215.425.068-.291,2.159-4.681,2.41-5.183.238-.476.693-1.769,1.069-1.968a4.709,4.709,0,0,1,1.015-.443c.135,1.626.372.934-.3,2.307-.083.169-.131.321-.221.508l-2.087,4.473a3.452,3.452,0,0,0-.424,1.033,3.644,3.644,0,0,0,.972.425c.063-.272,1.425-2.651,1.6-2.951l1.087-1.95c.106-.214.187-.316.285-.5l.53-.989c.081-.163.178-.3.271-.458.769-1.272,1.39-2.639,2.163-3.911l1.614-2.942c.272-.464.458-.369.928-.59a4.065,4.065,0,0,1,1.113-.405c0,.706.309,1.47.021,1.964l-.547.972c-.1.185-.146.305-.251.478l-2.382,4.3c-.424.818-.928,1.6-1.335,2.43l-2.123,3.829c-.1.174-.159.33-.271.518l-.764,1.423c.306.082.4.337.729.364a4.092,4.092,0,0,1,.624-.955l3.226-4.609c.17-.258.443-.763.709-.87a3.98,3.98,0,0,1,1.21-.308,2.522,2.522,0,0,1-.225,1.6l-4.27,6.117c.191.128.335.236.529.382a1.827,1.827,0,0,0,.5.347,4.516,4.516,0,0,0,.771-.869c.129-.154.235-.276.357-.432l2.186-2.612c.147-.189.226-.246.365-.424l1.8-2.148c.122-.14.246-.29.359-.43l2.191-2.607c.122-.14.246-.29.359-.43l1.1-1.326c.131-.156.229-.28.361-.428.451-.506.552-.912,1.328-1.041,1.54-.257,1.388-.457,1.351-.061-.059.634.149,1.266-.277,1.742l-1.794,2.154c-.133.15-.266.31-.389.462l-5.416,6.489c-.506.6-.951,1.16-1.458,1.761-.127.151-.233.291-.361.429l-.727.852c-.112.137-.265.312-.35.439a2.625,2.625,0,0,0,.486.425c.281-.42,2.9-2.933,3.325-3.356l1.67-1.67c.234-.234.581-.636.815-.825.192-.155.025-.079.321-.1l1.1-.119a4.407,4.407,0,0,1-.294,1.407c-.206.318-2.128,2.139-2.485,2.5-.6.6-2.977,2.852-3.309,3.34l.743.714,6.7-5.633c.145-.129.276-.229.436-.354.183-.143.25-.212.434-.356.288-.225.539-.49.815-.7.151-.117.274-.226.434-.356l3.367-2.829c.474-.371.68-.824,1.423-.824h1.458a2.677,2.677,0,0,1-.156.695c-.146.574-.043.815-.5,1.2l-1.325,1.1c-.178.139-.28.246-.46.391l-.888.752c-.176.143-.259.217-.425.365l-.7.579c-.079.07-.1.107-.186.178l-6.263,5.277c-.188.147-.288.24-.468.382-.151.12-.291.222-.432.357-.288.275-.592.485-.881.759a5.461,5.461,0,0,0-.866.774c.082.306.161.119.243.425.286-.024.088.022.3-.127,1.636-1.161,4.137-2.965,5.715-4a10.779,10.779,0,0,1,1-.7,10.71,10.71,0,0,1,1.487.093c-.185.385-.293.81-.494,1.206a39.21,39.21,0,0,1-3.444,2.508l-1.008.693c-.193.146-.292.219-.5.354-.351.232-.669.473-1,.7s-.646.45-.972.668c.084.314.392.5.486.85a1.067,1.067,0,0,0,.543-.246c.874-.532,2.238-1.223,3-1.733a4.471,4.471,0,0,1,.5-.288l9.514-5.488c.754-.415.724-.621,1.73-.495,1.5.188,1.349-.179.733,1.379-.18.456-.4.525-.822.757-1.017.553-1.98,1.191-3,1.741-1.333.721-2.64,1.55-3.95,2.306-.178.1-.318.162-.51.279l-2,1.16c-.731.368-4.085,2.481-4.474,2.572a1.568,1.568,0,0,0,.243.546c.081.161.158.327.243.486l1.484-.7c.2-.091.32-.133.513-.216s.257-.158.475-.254c.18-.079.35-.124.521-.208.2-.1.241-.14.485-.243l2.495-1.149c2.2-1.055,1.462-.986,3.259-.568a1.038,1.038,0,0,1-.28.571c-.607.9-.329.578-1.381,1.109l-4.008,1.884c-.21.1-.341.138-.547.242-.745.376-1.511.675-2.226,1.053a3.018,3.018,0,0,0,.364.911c.493-.236,1.425-.545,2-.736l11.752-4.283a19.624,19.624,0,0,1,1.981-.691,15.226,15.226,0,0,1,1.883.547,8.983,8.983,0,0,1-.534.862c-.2.306-.3.6-.67.727l-12.15,4.431c-.348.116-.632.255-1.016.38a6.988,6.988,0,0,1-.995.341,5.577,5.577,0,0,0,.183.728,2.979,2.979,0,0,1,.121.79,10.814,10.814,0,0,1,1.762-.485l4.348-1.179c1.117-.277.8-.36,2.211.389l-.652.745c-.393.4-.3.33-.915.482l-6.571,1.749.061.85c.366,0,5.167-.88,5.845-1.018,1.3-.263,2.581-.412,3.889-.666l3.8-.69c.31-.062.663-.122.987-.167,1.323-.182.791-.272,2.662.718-.076.286-.429.5-.622.714-.208.236-.349.53-.667.608-.189.046-.367.059-.568.1a8.326,8.326,0,0,1-1.6.278c.32.6.594,2.236,1.458,2.308a2.8,2.8,0,0,0,.6-1.647c.374-1.855,2.382-2.667,4.113-2.4a6.525,6.525,0,0,1,1.725.522,9.639,9.639,0,0,1,2.626,1.808,2.22,2.22,0,0,0,1.382.8c.861,0,.614-.85,1.7-.85,1.424,0,3.4,3.3,4.825,1.607.788-.936,1.239-3.008,2.281-1.425a4.127,4.127,0,0,1,.486.79c.252-.059.322-.174.565-.286,1.411-.648,3.438,1.106,4.888,1.454a6.716,6.716,0,0,0,2.955.073c1.05-.245,1.56-1.3,2.768-1.3.99,0,1.107.733,1.637.914,1.185.4,2.7-.651,3.109.778a5.675,5.675,0,0,1,.173,1.406c0,1.141.315,2.878-1.085,3.167a12.112,12.112,0,0,1-2.438.052H174.322c-1.43,0-2.652.061-4.069.061l-20.71.061c-1.429,0-2.649.061-4.069.061h-6.195c-.72,0-1.252.061-2,.061h-6.256c-.747,0-1.263.061-2,.061H122.82c-.746,0-1.315.062-2,.061-5.6-.013-11,.061-16.58.061-5.473,0-10.98.121-16.459.121-5.526,0-10.949.061-16.52.061-2.771,0-5.441.061-8.26.061H43.805C42.615,191.1,41.983,190.65,41.983,189.455Zm40.57-2.308c-.229,0-.115-.04-.364-.061,0-.592.121-1,.121-1.519a.334.334,0,0,1,.075.108l.176.431S83.108,187.147,82.553,187.147Z" transform="translate(0 0)" fill="#e50019" fill-rule="evenodd"/>
    <path id="Path_158" data-name="Path 158" d="M136.424,175.12a9.87,9.87,0,0,0,.547,1.519c-.526.278-4.249,1.628-5.042,1.943l-3.106,1.206c-.692.247-.5.322-.616,1.146-.033.225-.084.51-.141.774-.065.3-.171.5.144.4l3.77-1.468c.207-.083.441-.149.67-.241.485-.2,4.605-1.832,5.049-1.935a4.43,4.43,0,0,0,.322.893l.346.929a20.277,20.277,0,0,0-2.173.014c-1.766.286-.655,2.262-1.121,2.706-.394.376-1.509-.531-2.233.743-.532.937-.09,2.716-.467,3.116a1.763,1.763,0,0,1-2.485.079,4.56,4.56,0,0,1-.464-.447c-1.945-1.964-3.772-2.259-5.591-.095-.674.8-1.175,1.659-2.35,1.659a1.26,1.26,0,0,1-.965-.371c-.666-.532-1.129-2.059-2.132-2.059a1.516,1.516,0,0,0-.79.365,1.651,1.651,0,0,0-2.49.547c-.128-.086-.225-.161-.354-.254-1.135-.818-1.578,1.711-2.8,1.711-.452,0-.73-.535-.818-.943-.234-1.084.452-2.4-2.95-2.455-1.215-.02-1.174-1.392-1.316-2.268a7.126,7.126,0,0,0-.36-1.462c-.286-.6-.484-.889-1.176-.889a2.563,2.563,0,0,0-1.02.5c-1.327,1.224.568,3.742-.616,4.3-.5.238-1.5-.072-1.921.447-.37.457-.244,1.236-.2,1.8a4.793,4.793,0,0,1-.559-.363c-2.109-1.4-2.6-.542-3.28-.486l-.419-.432c-2.206-2.289-1.855-.783-5.351-.783a23.267,23.267,0,0,1-2.342-.148c-.2-.088-.272-.746-.315-.961-.3-1.533-.475-1.785,2.047-1.44.692.095,1.885.5,2.488.174.431-.23.1-.6-.056-.906A12.686,12.686,0,0,1,89,180.7c-.613-.25-2.5-1.69-3.036-.833-.458.736.562,1.841-.694,3.314l-.675.722a2.633,2.633,0,0,1-1.616.935c-.2,0-.194-.061-.486-.061a4.017,4.017,0,0,1,.113-.737c.049-.293.084-.478.144-.767.051-.243.123-.442.193-.718a32.231,32.231,0,0,1,1.32-4.147l.821-1.912a33.28,33.28,0,0,1,3.828-6.194l1.234-1.5a26.437,26.437,0,0,1,2.719-2.748,24.964,24.964,0,0,1,1.966-1.678,44.288,44.288,0,0,1,4.4-2.889,32.017,32.017,0,0,1,7.847-3.085,29.964,29.964,0,0,1,11.327-.612l1.688.255a35.955,35.955,0,0,1,6.067,1.646c.448.2.924.347,1.377.566.228.11.41.164.645.266l1.3.644a23.557,23.557,0,0,1,3.1,1.755c.22.138.345.219.55.361l4.06,3.168a23.714,23.714,0,0,1,1.7,1.7c.114.124.112.149.215.271a3.186,3.186,0,0,0,.241.245,24.934,24.934,0,0,1,2.145,2.653,34.046,34.046,0,0,1,3.766,6.864c.293.688.11.822-.089,1.439a23.975,23.975,0,0,0-.559,4.239c-.078.818-.139,1.668-.807,2.109-2.356,1.557-1.509-3.847-1.865-5.014a.872.872,0,0,0-.42-.612,4.007,4.007,0,0,0-2.186-.183l.267-.1c.407-.158.179-.384.045-.76l-1.014-2.631c-.1-.259-.181-.4-.262-.649-.157-.478-.377-.892-.493-1.39C137.346,174.679,136.9,175.08,136.424,175.12ZM70.467,183.5l5.6.963a4.887,4.887,0,0,0,.841.131,3.184,3.184,0,0,1-4.355.651l-1.726-1.432A2.308,2.308,0,0,1,70.467,183.5Zm86.121,2.187c-.768,0-.942-.81-1.923-1.479-.117-.08-.041-.013-.142-.1.564-.047,2.472-.486,2.854-.486C157.224,183.944,157.546,185.689,156.588,185.689Zm-76.95-.547c.461,0,.968.182,1.458.182l-.04.67c-.247-.122-.478-.257-.715-.4a3.449,3.449,0,0,1-.7-.452m-37.655,4.313v-1.331c.04-.665.189-1.315.665-1.527.774-.345,1.524.348,2.007.672.261-.175.242-.294.449-.462a2.243,2.243,0,0,1,2.1-.509c-.078-.943-.592-1.519,1.215-1.519,1.427-2.131,2.418-1.613,3.306.4.6,1.369,1.181.224,1.65-.485.114-.173.172-.287.278-.451l.672-.786c1.058-.991,2.047-.143,2.857.7a13.137,13.137,0,0,1,1.259,1.535,2.983,2.983,0,0,0,.736-.539c1.01-.759,1.581-.28,2.376.525.688.7,2.142,1.253,2.473-.109a5.76,5.76,0,0,1,.294-1.468c.259-.486.617-.419,1.141-.621.388-.15.866-.509,1.179-.582v-.121a5.411,5.411,0,0,1-.856-.116c-.227-.076-.132-.043-.266-.22l-.7-.757c-.14-.183-.359-.3-.425-.547.354-.082,1.378-.729,1.579-.729l5.845,1.018c1.315.267,2.573.409,3.9.657.665.125,1.208.258,1.907.34.787.092,3.221.658,3.9.658.061-.262.123-.535.182-.79-.291-.007-3.636-.916-4.152-1.071-.869-.261-1.746-.409-2.58-.7a2.381,2.381,0,0,1-.8-1.084c.048-.023,1.139-.364,1.154-.364.072,0,.716.208.85.243l1.724.462c.312.078.55.128.827.205l1.674.452a15.813,15.813,0,0,1,1.666.46l.547-1.7a2.094,2.094,0,0,1-.589-.2c-.2-.078-.333-.115-.543-.186l-9.662-3.517c-.386-.149-.65-.257-1.071-.387-.739-.229-1.373-.54-2.127-.789-.95-.314-1.085-.266-1.41-.776a5.3,5.3,0,0,1-.814-1.373,14.009,14.009,0,0,1,1.64-.486,28.072,28.072,0,0,1,2.954,1.054l6.261,2.242c.17.066.268.113.434.173.306.111.692.228.988.348.326.133.586.214.941.335l1.912.7c.641.213,1.274.521,1.936.675.058-.251.173-.37.243-.668a5.749,5.749,0,0,1-.931-.4l-4.937-2.29c-.226-.1-.23-.141-.329-.339a3.361,3.361,0,0,1-.362-.914c.482,0,.7-.122,1.154-.122.222,0,5.363,2.629,6.073,2.794.1-.423.449-.735.547-1.154-.188-.1-.294-.176-.506-.283a5.663,5.663,0,0,1-.49-.3l-2.971-1.705c-1.011-.537-1.97-1.148-2.958-1.719-1.069-.618-4.14-2.3-4.942-2.832l-1.961-1.137c-.328-.161-.228-.086-.367-.423-.083-.2-.151-.335-.242-.548a7.935,7.935,0,0,1-.442-1.077c.618,0,1.159-.182,1.822-.182l1.395.792c1.773,1.024,3.572,2,5.322,3.06.164.1.234.166.409.259s.311.144.479.25c1.059.67,2.91,1.69,4.015,2.3l.89.507c.157.091.262.184.447.282l1.316.749a4.087,4.087,0,0,0,.486-.79l-3.244-2.283c-.3-.2-.538-.38-.826-.571s-.495-.372-.777-.56c-.227-.151-.7-.387-.79-.607-.041-.1-.293-1.011-.291-1.025.02-.15.2-.059.519-.056.791.008.788.059,1.5.571.157.113.259.2.416.313.918.664,1.887,1.257,2.794,1.943a15.173,15.173,0,0,0,1.614,1.119,4.444,4.444,0,0,1,.607-.85l-.865-.714c-.149-.142-.266-.229-.429-.361l-1.291-1.078c-.157-.123-.278-.227-.432-.357-.1-.085-.115-.111-.227-.2l-6.6-5.546c-.138-.109-.267-.207-.4-.327l-1.716-1.442c-.443-.337-.4-.431-.547-1.032a8.746,8.746,0,0,1-.242-1.276c.356,0,.415.055.727.063a1.9,1.9,0,0,1,1.292.287c.156.133.271.227.429.361l5.925,4.947c.16.129.283.239.434.356s.224.21.39.339l5.076,4.217a2.71,2.71,0,0,1,.729-.729c-.074-.276-.479-.57-.683-.774-.587-.587-4.125-4.016-4.267-4.3a7.761,7.761,0,0,1-.152-1.245c.11.009,1.088.233,1.182.275a6.26,6.26,0,0,1,.716.681c.646.646,3.806,3.918,4.236,4.206a1.291,1.291,0,0,0,.607-.547c-.085-.127-.262-.324-.383-.467L82,152.958c-.492-.611-.561-.452-.651-1.293l-.069-1.51c.448.1.9.2,1.337.3a1.382,1.382,0,0,1,.945.7l1.106,1.323c.14.16.22.277.363.427l4.059,4.809c.147.188.226.247.365.425l1.469,1.75c.155.174.243.274.393.458.13.159.237.28.359.431.641.793,1.662,1.85,2.178,2.62.362-.1.555-.512.911-.607-.372-.556-4.253-6.056-4.265-6.075l.074-1.335a4.471,4.471,0,0,1,1.1.415c.246.114.22.148.373.356.937,1.279,1.8,2.674,2.749,3.932a13.326,13.326,0,0,1,1.18,1.735c.289-.024.487-.237.729-.364a6.609,6.609,0,0,0-.544-.975c-.1-.166-.148-.3-.257-.472l-6.8-11.784c-.607-.928-.049-.914-.049-2.441a7.4,7.4,0,0,1,1.076.443c.663.287.461.079.826.692l1.945,3.34c.1.19.158.288.264.465.2.329.385.644.563.956l3.037,5.223c.093.161.168.293.264.465l1.114,1.923a7.353,7.353,0,0,1,.507.951c.609-.051,1.049-.591,1.64-.729-.914-1.728-1.775-3.938-2.672-5.71-.652-1.287-.144-1.068-.061-2.065a4.274,4.274,0,0,1,.925.533c.4.261.349.4.553.844.433.935,2.54,5.249,2.652,5.73.206-.048.313-.128.547-.182L97.138,144.5c-.207-.553-.223-.484-.032-1.047l.327-1.01a4.978,4.978,0,0,1,.862.535c.457.285.383.329.57.827.572,1.521,1.059,3.082,1.666,4.59.073.182.092.292.159.509l3.3,9.089a9.233,9.233,0,0,1,1.943-.547c-.08-.342-.169-.594-.27-.945-.093-.326-.14-.6-.229-.925-.156-.569-.317-1.2-.495-1.814-.127-.435-.951-3.249-.951-3.666,0-.136.428-.907.486-1.154.331.088.546.4.775.622a4.6,4.6,0,0,1,.743,2.051c.1.374.2.727.29,1.107l.6,2.195c.12.412.539,1.823.568,2.166.411-.034.865-.209,1.275-.243-.146-.627-.239-1.276-.379-1.929l-.373-1.874c-.151-.656-.243-1.186-.366-1.881-.228-1.282-.565-2.515-.773-3.783-.106-.645-.24-1.221-.38-1.867-.118-.543-.7-3.416-.7-3.79a6.423,6.423,0,0,1,.729-1.336c.3.08.464.395.683.593.451.409.285.107.448.828l1.264,6.268c.432,2.137.895,4.155,1.267,6.326a16.879,16.879,0,0,1,.409,2.082,6.47,6.47,0,0,0,.677-.052c.283-.021.415.075.406-.229-.011-.375-.113-.863-.112-1.3l-.424-5.1c-.014-.271-.068-.343-.067-.67,0-.591.535-.813.674-1.334a3.133,3.133,0,0,1,.594.682c.353.422.26.29.327.948.074.73.092,1.54.2,2.292l.4,4.582h.668l-.061-15.428a10.934,10.934,0,0,1,.972-1.4,3.287,3.287,0,0,1,.521.633c.229.3.288.275.359.734.116.75.031,11.539.031,13.454,0,.286-.155,2,.243,2,1.029,0,.827.18.913-1.091l.421-4.742c.026-.387.077-.812.113-1.162.067-.655-.032-.534.359-.916.193-.189.421-.522.684-.592.085.366.547.961.547,1.215,0,1-.181,1.907-.245,2.853a43.713,43.713,0,0,1-.423,4.558c.387.032.887.174,1.275.182.074-.316.121-.784.174-1.1.064-.387.13-.718.191-1.085.241-1.463.432-2.954.713-4.389l1.445-8.638c.084-.376.345-.435.591-.685a4.654,4.654,0,0,1,.652-.563c.526.993.659,1.04.529,1.8-.056.328-.1.757-.164,1.111s-.125.685-.182,1.032c-.112.684-.236,1.491-.348,2.143-.243,1.414-.525,2.849-.7,4.286l-.713,4.268a15.825,15.825,0,0,0-.309,2.121,6.409,6.409,0,0,0,1.154.243,8.987,8.987,0,0,0,.3-1.1l1.459-5.465a4.286,4.286,0,0,1,.153-.576c.133-.306.871-.7,1.128-.876a5.143,5.143,0,0,1,.364,1.276c0,.47-.8,3.033-.926,3.63l-.957,3.538a10.629,10.629,0,0,1,1.215.364,3.968,3.968,0,0,1,.2-.529l.566-1.56c.124-.378.276-.707.373-1.024.126-.408.246-.658.379-1.018.066-.179.11-.371.18-.548.477-1.19.851-2.412,1.319-3.6.8-2.03,1.49-4.182,2.291-6.212.242-.614.156-.408.655-.742a2.546,2.546,0,0,1,.9-.5,6.587,6.587,0,0,1,.364,1.336c0,.306-.862,2.307-1.04,2.848-.611,1.858-1.7,4.777-2.4,6.593l-1.02,2.806c-.278.842-.821,2.007-1.009,2.817.4.033.846.395,1.215.425.068-.291,2.159-4.681,2.41-5.183.238-.476.693-1.769,1.069-1.968a4.709,4.709,0,0,1,1.015-.443c.135,1.626.372.934-.3,2.307-.083.169-.131.321-.221.508l-2.087,4.473a3.452,3.452,0,0,0-.424,1.033,3.644,3.644,0,0,0,.972.425c.063-.272,1.425-2.651,1.6-2.951l1.087-1.95c.106-.214.187-.316.285-.5l.53-.989c.081-.163.178-.3.271-.458.769-1.272,1.39-2.639,2.163-3.911l1.614-2.942c.272-.464.458-.369.928-.59a4.065,4.065,0,0,1,1.113-.405c0,.706.309,1.47.021,1.964l-.547.972c-.1.185-.146.305-.251.478l-2.382,4.3c-.424.818-.928,1.6-1.335,2.43l-2.123,3.829c-.1.174-.159.33-.271.518l-.764,1.423c.306.082.4.337.729.364a4.092,4.092,0,0,1,.624-.955l3.226-4.609c.17-.258.443-.763.709-.87a3.98,3.98,0,0,1,1.21-.308,2.522,2.522,0,0,1-.225,1.6l-4.27,6.117c.191.128.335.236.529.382a1.827,1.827,0,0,0,.5.347,4.516,4.516,0,0,0,.771-.869c.129-.154.235-.276.357-.432l2.186-2.612c.147-.189.226-.246.365-.424l1.8-2.148c.122-.14.246-.29.359-.43l2.191-2.607c.122-.14.246-.29.359-.43l1.1-1.326c.131-.156.229-.28.361-.428.451-.506.552-.912,1.328-1.041,1.54-.257,1.388-.457,1.351-.061-.059.634.149,1.266-.277,1.742l-1.794,2.154c-.133.15-.266.31-.389.462l-5.416,6.489c-.506.6-.951,1.16-1.458,1.761-.127.151-.233.291-.361.429l-.727.852c-.112.137-.265.312-.35.439a2.625,2.625,0,0,0,.486.425c.281-.42,2.9-2.933,3.325-3.356l1.67-1.67c.234-.234.581-.636.815-.825.192-.155.025-.079.321-.1l1.1-.119a4.407,4.407,0,0,1-.294,1.407c-.206.318-2.128,2.139-2.485,2.5-.6.6-2.977,2.852-3.309,3.34l.743.714,6.7-5.633c.145-.129.276-.229.436-.354.183-.143.25-.212.434-.356.288-.225.539-.49.815-.7.151-.117.274-.226.434-.356l3.367-2.829c.474-.371.68-.824,1.423-.824h1.458a2.677,2.677,0,0,1-.156.695c-.146.574-.043.815-.5,1.2l-1.325,1.1c-.178.139-.28.246-.46.391l-.888.752c-.176.143-.259.217-.425.365l-.7.579c-.079.07-.1.107-.186.178l-6.263,5.277c-.188.147-.288.24-.468.382-.151.12-.291.222-.432.357-.288.275-.592.485-.881.759a5.461,5.461,0,0,0-.866.774c.082.306.161.119.243.425.286-.024.088.022.3-.127,1.636-1.161,4.137-2.965,5.715-4a10.779,10.779,0,0,1,1-.7,10.71,10.71,0,0,1,1.487.093c-.185.385-.293.81-.494,1.206a39.21,39.21,0,0,1-3.444,2.508l-1.008.693c-.193.146-.292.219-.5.354-.351.232-.669.473-1,.7s-.646.45-.972.668c.084.314.392.5.486.85a1.067,1.067,0,0,0,.543-.246c.874-.532,2.238-1.223,3-1.733a4.471,4.471,0,0,1,.5-.288l9.514-5.488c.754-.415.724-.621,1.73-.495,1.5.188,1.349-.179.733,1.379-.18.456-.4.525-.822.757-1.017.553-1.98,1.191-3,1.741-1.333.721-2.64,1.55-3.95,2.306-.178.1-.318.162-.51.279l-2,1.16c-.731.368-4.085,2.481-4.474,2.572a1.568,1.568,0,0,0,.243.546c.081.161.158.327.243.486l1.484-.7c.2-.091.32-.133.513-.216s.257-.158.475-.254c.18-.079.35-.124.521-.208.2-.1.241-.14.485-.243l2.495-1.149c2.2-1.055,1.462-.986,3.259-.568a1.038,1.038,0,0,1-.28.571c-.607.9-.329.578-1.381,1.109l-4.008,1.884c-.21.1-.341.138-.547.242-.745.376-1.511.675-2.226,1.053a3.018,3.018,0,0,0,.364.911c.493-.236,1.425-.545,2-.736l11.752-4.283a19.624,19.624,0,0,1,1.981-.691,15.226,15.226,0,0,1,1.883.547,8.983,8.983,0,0,1-.534.862c-.2.306-.3.6-.67.727l-12.15,4.431c-.348.116-.632.255-1.016.38a6.988,6.988,0,0,1-.995.341,5.577,5.577,0,0,0,.183.728,2.979,2.979,0,0,1,.121.79,10.814,10.814,0,0,1,1.762-.485l4.348-1.179c1.117-.277.8-.36,2.211.389l-.652.745c-.393.4-.3.33-.915.482l-6.571,1.749.061.85c.366,0,5.167-.88,5.845-1.018,1.3-.263,2.581-.412,3.889-.666l3.8-.69c.31-.062.663-.122.987-.167,1.323-.182.791-.272,2.662.718-.076.286-.429.5-.622.714-.208.236-.349.53-.667.608-.189.046-.367.059-.568.1a8.326,8.326,0,0,1-1.6.278c.32.6.594,2.236,1.458,2.308a2.8,2.8,0,0,0,.6-1.647c.374-1.855,2.382-2.667,4.113-2.4a6.525,6.525,0,0,1,1.725.522,9.639,9.639,0,0,1,2.626,1.808,2.22,2.22,0,0,0,1.382.8c.861,0,.614-.85,1.7-.85,1.424,0,3.4,3.3,4.825,1.607.788-.936,1.239-3.008,2.281-1.425a4.127,4.127,0,0,1,.486.79c.252-.059.322-.174.565-.286,1.411-.648,3.438,1.106,4.888,1.454a6.716,6.716,0,0,0,2.955.073c1.05-.245,1.56-1.3,2.768-1.3.99,0,1.107.733,1.637.914,1.185.4,2.7-.651,3.109.778a5.675,5.675,0,0,1,.173,1.406c0,1.141.315,2.878-1.085,3.167a12.112,12.112,0,0,1-2.438.052H174.322c-1.43,0-2.652.061-4.069.061l-20.71.061c-1.429,0-2.649.061-4.069.061h-6.195c-.72,0-1.252.061-2,.061h-6.256c-.747,0-1.263.061-2,.061H122.82c-.746,0-1.315.062-2,.061-5.6-.013-11,.061-16.58.061-5.473,0-10.98.121-16.459.121-5.526,0-10.949.061-16.52.061-2.771,0-5.441.061-8.26.061H43.805C42.615,191.1,41.983,190.65,41.983,189.455Zm40.57-2.308c-.229,0-.115-.04-.364-.061,0-.592.121-1,.121-1.519a.334.334,0,0,1,.075.108l.176.431S83.108,187.147,82.553,187.147Z" transform="translate(0 0)" fill="none"/>
    <path id="Path_159" data-name="Path 159" d="M54.054,1916.733a15.221,15.221,0,0,0,.1,3,1.232,1.232,0,0,0,1.053.708H148.5c.682,0,1.093-.714,1.093-1.518,0-1.446.306-3.341-1.275-3.341H55.208A1.2,1.2,0,0,0,54.054,1916.733Z" transform="translate(-11.464 -1689.557)" fill="#e50019" fill-rule="evenodd"/>
    <path id="Path_160" data-name="Path 160" d="M54.054,1916.733a15.221,15.221,0,0,0,.1,3,1.232,1.232,0,0,0,1.053.708H148.5c.682,0,1.093-.714,1.093-1.518,0-1.446.306-3.341-1.275-3.341H55.208A1.2,1.2,0,0,0,54.054,1916.733Z" transform="translate(-11.464 -1689.557)" fill="none"/>
    <path id="Path_161" data-name="Path 161" d="M2592.113,1368.528c-.885-.206-1.268.8-1.735,1.423-.185.245-.3.426-.493.661l-.964,1.283-.468.625a1.5,1.5,0,0,0-.408.929c0,1.245,2.261.661,3.037.669.352,0,.461-.056.729-.061,0,.9-.061,1.584-.061,2.49v2.855c0,2.337.009,6.884,1.994,8.211,1.18.789,2.743-.059,3.776-.618.271-.147.53-.3.808-.467l.791-.484a13.058,13.058,0,0,1,1.558-1.053,3.42,3.42,0,0,0,1.4,1.7,7.534,7.534,0,0,0,4.009,1.275,5.6,5.6,0,0,0,3.462-.972c.46-.306.8-.622,1.223-.963l1.16-1.087c1.078-1.078,1.989-1.406,1.1-2.532-.361-.459-.684-.813-1.4-.5a5.6,5.6,0,0,1-2.267.406,3.6,3.6,0,0,1-2.724-.92,1.4,1.4,0,0,1-.456-.455c-.558-1.005.429-1.115,1.238-1.115a8.3,8.3,0,0,1,4.905,1.594l.818.821a8.6,8.6,0,0,1,1.016,1.414,19.789,19.789,0,0,1,1.3,2.827c.415,1.082.605,2.09,2.083.98l2.421-1.709c.4-.294,1.726-1.02,1.726-1.554a1.845,1.845,0,0,0-.365-1.093c-.14-.269-.26-.522-.4-.811-.587-1.174-1.806-3.692-2.438-4.729-.155-.253-.261-.475-.418-.736-.447-.743-.869-1.512-1.364-2.219l-1.951-2.847c-.78-1.047-2.12-3.152-3.481-3.625a2.418,2.418,0,0,0-1.953.041,7.075,7.075,0,0,0-1.461.907c-.926.628-1.707,1.464-2.589,2.149-.812.632-1.567,1.117-.774,2.162s1.2.051,2.06.125c1.064.093,2.228,1.425,2.687,2.294a13.449,13.449,0,0,0-4.287,1.483,11.468,11.468,0,0,0-3.2,2.63,6.266,6.266,0,0,0-.412.56,7.789,7.789,0,0,0-.907,2.009c-.7-.335-1.635.85-1.873-1.164a16.769,16.769,0,0,1-.253-1.873v-5.406c1.18,0,1.078.041,1.979-1.119l.861-.961c.663-.753,1.486-1.36,2.186-2.065a1.061,1.061,0,0,0,.44-.957.62.62,0,0,0-.246-.483c-.506-.449-1.271-.18-1.869-.113a29.36,29.36,0,0,1-3.109.11c.007-.263.063-.333.063-.666a5.35,5.35,0,0,1,.014-.714l.161-2.865c-.077-.641-.487-.8-1.028-.8-.242,0-.668.344-.863.474-1.115.743-2.949,1.891-4.006,2.675-.307.228-.526.292-.649.688S2592.208,1368.119,2592.113,1368.528Z" transform="translate(-2421.981 -1164.312)" fill="#e50019" fill-rule="evenodd"/>
    <path id="Path_162" data-name="Path 162" d="M2592.113,1368.528c-.885-.206-1.268.8-1.735,1.423-.185.245-.3.426-.493.661l-.964,1.283-.468.625a1.5,1.5,0,0,0-.408.929c0,1.245,2.261.661,3.037.669.352,0,.461-.056.729-.061,0,.9-.061,1.584-.061,2.49v2.855c0,2.337.009,6.884,1.994,8.211,1.18.789,2.743-.059,3.776-.618.271-.147.53-.3.808-.467l.791-.484a13.058,13.058,0,0,1,1.558-1.053,3.42,3.42,0,0,0,1.4,1.7,7.534,7.534,0,0,0,4.009,1.275,5.6,5.6,0,0,0,3.462-.972c.46-.306.8-.622,1.223-.963l1.16-1.087c1.078-1.078,1.989-1.406,1.1-2.532-.361-.459-.684-.813-1.4-.5a5.6,5.6,0,0,1-2.267.406,3.6,3.6,0,0,1-2.724-.92,1.4,1.4,0,0,1-.456-.455c-.558-1.005.429-1.115,1.238-1.115a8.3,8.3,0,0,1,4.905,1.594l.818.821a8.6,8.6,0,0,1,1.016,1.414,19.789,19.789,0,0,1,1.3,2.827c.415,1.082.605,2.09,2.083.98l2.421-1.709c.4-.294,1.726-1.02,1.726-1.554a1.845,1.845,0,0,0-.365-1.093c-.14-.269-.26-.522-.4-.811-.587-1.174-1.806-3.692-2.438-4.729-.155-.253-.261-.475-.418-.736-.447-.743-.869-1.512-1.364-2.219l-1.951-2.847c-.78-1.047-2.12-3.152-3.481-3.625a2.418,2.418,0,0,0-1.953.041,7.075,7.075,0,0,0-1.461.907c-.926.628-1.707,1.464-2.589,2.149-.812.632-1.567,1.117-.774,2.162s1.2.051,2.06.125c1.064.093,2.228,1.425,2.687,2.294a13.449,13.449,0,0,0-4.287,1.483,11.468,11.468,0,0,0-3.2,2.63,6.266,6.266,0,0,0-.412.56,7.789,7.789,0,0,0-.907,2.009c-.7-.335-1.635.85-1.873-1.164a16.769,16.769,0,0,1-.253-1.873v-5.406c1.18,0,1.078.041,1.979-1.119l.861-.961c.663-.753,1.486-1.36,2.186-2.065a1.061,1.061,0,0,0,.44-.957.62.62,0,0,0-.246-.483c-.506-.449-1.271-.18-1.869-.113a29.36,29.36,0,0,1-3.109.11c.007-.263.063-.333.063-.666a5.35,5.35,0,0,1,.014-.714l.161-2.865c-.077-.641-.487-.8-1.028-.8-.242,0-.668.344-.863.474-1.115.743-2.949,1.891-4.006,2.675-.307.228-.526.292-.649.688S2592.208,1368.119,2592.113,1368.528Z" transform="translate(-2421.981 -1164.312)" fill="none"/>
    <path id="Path_163" data-name="Path 163" d="M80.056,1318.637c0,2.15-2.969,2.906-4.756,2.145a5.664,5.664,0,0,1-2.827-2.821c-.13-.326-.279-.963-.92-.963s-3.109,1.778-3.778,2.235c-1.009.69-2.114,1.574-2.114,2.867a3.145,3.145,0,0,0,1.229,2.111c.131.122.175.128.3.243a3.91,3.91,0,0,0,.313.294,7.484,7.484,0,0,0,3.22,1.335,11.506,11.506,0,0,0,1.484.157,11.067,11.067,0,0,0,2.638-.173,15.746,15.746,0,0,0,5.025-1.778l2-1.336,1.229-1.079a11.959,11.959,0,0,0,1.13-1.118,21.171,21.171,0,0,0,1.561-1.9c1.975-2.968,1.613-6.481-1.876-8.214L82.9,1310.2c-1.252-.507-5.333-1.436-6.75-1.936-.419-.148-.663-.285-1.017-.441a6.964,6.964,0,0,1-.946-.512,2.014,2.014,0,0,1-.99-2.883c.319-.777.565-.957,1.52-1.091a3.753,3.753,0,0,1,3.114.511,2.339,2.339,0,0,1,.236.189c1.673,1.36,1.323,2.487,2.838,1.6.119-.07.241-.122.362-.185.157-.081.218-.135.384-.224l1.457-.79a8.341,8.341,0,0,0,1.97-1.37,2.093,2.093,0,0,0-.394-2.674,6.566,6.566,0,0,0-4.632-1.806,13.378,13.378,0,0,0-2.205.1,12.4,12.4,0,0,0-3.5.938,15.361,15.361,0,0,0-2.984,1.45l-1.381.867a11.478,11.478,0,0,0-1.914,1.73l-.666.853a6.326,6.326,0,0,0-1.387,4.449,5.127,5.127,0,0,0,.237,1.221,3.123,3.123,0,0,0,.494.964,6.68,6.68,0,0,0,1.562,1.414c1.248.945,2.916,1.1,4.369,1.584l2.269.647c1.482.392,4.1,1.043,4.8,2.612A4.483,4.483,0,0,1,80.056,1318.637Z" transform="translate(-22.525 -1102.638)" fill="#e50019" fill-rule="evenodd"/>
    <path id="Path_164" data-name="Path 164" d="M80.056,1318.637c0,2.15-2.969,2.906-4.756,2.145a5.664,5.664,0,0,1-2.827-2.821c-.13-.326-.279-.963-.92-.963s-3.109,1.778-3.778,2.235c-1.009.69-2.114,1.574-2.114,2.867a3.145,3.145,0,0,0,1.229,2.111c.131.122.175.128.3.243a3.91,3.91,0,0,0,.313.294,7.484,7.484,0,0,0,3.22,1.335,11.506,11.506,0,0,0,1.484.157,11.067,11.067,0,0,0,2.638-.173,15.746,15.746,0,0,0,5.025-1.778l2-1.336,1.229-1.079a11.959,11.959,0,0,0,1.13-1.118,21.171,21.171,0,0,0,1.561-1.9c1.975-2.968,1.613-6.481-1.876-8.214L82.9,1310.2c-1.252-.507-5.333-1.436-6.75-1.936-.419-.148-.663-.285-1.017-.441a6.964,6.964,0,0,1-.946-.512,2.014,2.014,0,0,1-.99-2.883c.319-.777.565-.957,1.52-1.091a3.753,3.753,0,0,1,3.114.511,2.339,2.339,0,0,1,.236.189c1.673,1.36,1.323,2.487,2.838,1.6.119-.07.241-.122.362-.185.157-.081.218-.135.384-.224l1.457-.79a8.341,8.341,0,0,0,1.97-1.37,2.093,2.093,0,0,0-.394-2.674,6.566,6.566,0,0,0-4.632-1.806,13.378,13.378,0,0,0-2.205.1,12.4,12.4,0,0,0-3.5.938,15.361,15.361,0,0,0-2.984,1.45l-1.381.867a11.478,11.478,0,0,0-1.914,1.73l-.666.853a6.326,6.326,0,0,0-1.387,4.449,5.127,5.127,0,0,0,.237,1.221,3.123,3.123,0,0,0,.494.964,6.68,6.68,0,0,0,1.562,1.414c1.248.945,2.916,1.1,4.369,1.584l2.269.647c1.482.392,4.1,1.043,4.8,2.612A4.483,4.483,0,0,1,80.056,1318.637Z" transform="translate(-22.525 -1102.638)" fill="none"/>
    <path id="Path_165" data-name="Path 165" d="M1293.205,1247.446a4.688,4.688,0,0,0,.261,1.075c.5,1.052,1.359.338,1.54.241a2.7,2.7,0,0,1,.871-.283l.292.8c.083.309.148.621.21.944a11.51,11.51,0,0,1,.166,2.082l.166,2.628c.184,1.361.07,10.222.079,12.437l-.139,3.141c-.225,1.636-.12,1.89.781,2.229,1.036.389,1.257.508,1.785-.7l.817-1.856c.093-.166.147-.246.238-.43.311-.627.619-1.121.97-1.7l2.862-3.759c.122-.157.191-.2.313-.355.531-.683,2.534-2.708,3.305-2.708.648,0,.988,1.95,1.13,2.514a31.047,31.047,0,0,1,.475,3.169c.041.3.072.528.1.814l.216,2.518c.116.772-.35,2.769.937,2.769.363,0,1.1-.605,1.422-.826l.687-.467c.367-.267,1-.637,1.367-.941l1.4-.912c.719-.473.442-.854.357-1.78-.033-.358-.037-.819-.092-1.184s-.037-.822-.079-1.136c-.1-.771-.17-2.607-.294-3.472-.33-2.307-.76-6.453-1.92-8.163-1.135-1.672-2.7-.913-3.95-.085-.222.147-.327.255-.559.413l-2.056,1.831c-.644.62-3.516,4.011-3.628,4.086l-.122-11.176c0-.757-.05-.779-.063-1.213-.025-.834.046-1.728,0-2.554a3.136,3.136,0,0,0-1.172-2.593,2.069,2.069,0,0,0-1.318-.322c-.861,0-3.275,1.715-3.96,2.175a30.246,30.246,0,0,0-3.15,2.2A1.326,1.326,0,0,0,1293.205,1247.446Z" transform="translate(-1190.246 -1049.304)" fill="#e50019" fill-rule="evenodd"/>
    <path id="Path_166" data-name="Path 166" d="M1293.205,1247.446a4.688,4.688,0,0,0,.261,1.075c.5,1.052,1.359.338,1.54.241a2.7,2.7,0,0,1,.871-.283l.292.8c.083.309.148.621.21.944a11.51,11.51,0,0,1,.166,2.082l.166,2.628c.184,1.361.07,10.222.079,12.437l-.139,3.141c-.225,1.636-.12,1.89.781,2.229,1.036.389,1.257.508,1.785-.7l.817-1.856c.093-.166.147-.246.238-.43.311-.627.619-1.121.97-1.7l2.862-3.759c.122-.157.191-.2.313-.355.531-.683,2.534-2.708,3.305-2.708.648,0,.988,1.95,1.13,2.514a31.047,31.047,0,0,1,.475,3.169c.041.3.072.528.1.814l.216,2.518c.116.772-.35,2.769.937,2.769.363,0,1.1-.605,1.422-.826l.687-.467c.367-.267,1-.637,1.367-.941l1.4-.912c.719-.473.442-.854.357-1.78-.033-.358-.037-.819-.092-1.184s-.037-.822-.079-1.136c-.1-.771-.17-2.607-.294-3.472-.33-2.307-.76-6.453-1.92-8.163-1.135-1.672-2.7-.913-3.95-.085-.222.147-.327.255-.559.413l-2.056,1.831c-.644.62-3.516,4.011-3.628,4.086l-.122-11.176c0-.757-.05-.779-.063-1.213-.025-.834.046-1.728,0-2.554a3.136,3.136,0,0,0-1.172-2.593,2.069,2.069,0,0,0-1.318-.322c-.861,0-3.275,1.715-3.96,2.175a30.246,30.246,0,0,0-3.15,2.2A1.326,1.326,0,0,0,1293.205,1247.446Z" transform="translate(-1190.246 -1049.304)" fill="none"/>
    <path id="Path_167" data-name="Path 167" d="M889.424,1243.06c0,.227.46,1.4,1.275,1.4a1.54,1.54,0,0,0,.583-.145,5.838,5.838,0,0,1,.631-.158,8.5,8.5,0,0,1,.625,3.323c.218,1.718.225,7.438.225,9.615a37.892,37.892,0,0,0,.381,5.572,6.634,6.634,0,0,0,2.033,3.859,5.331,5.331,0,0,0,4.51,1.989,6.187,6.187,0,0,0,2.395-.52,8.7,8.7,0,0,0,2.246-1.4,26.539,26.539,0,0,0,3.543-3.078l1.048-1.138a9.582,9.582,0,0,0,2.186-6.5,7.236,7.236,0,0,0-1.1-3.693,4.912,4.912,0,0,0-.664-.976c-1.457-1.844-4.061-3.008-6.35-1.933l-1.031.608c-.432.267-2.73,1.87-2.935,1.924,0-2.439-.061-4.706-.061-7.107,0-1.2-.061-2.277-.061-3.523,0-1.411.074-2.247-.771-2.873a2.417,2.417,0,0,0-2.716-.068,5.976,5.976,0,0,0-.5.348l-4.66,3.479C889.971,1242.265,889.424,1242.5,889.424,1243.06Zm9.657,10.144c.137.158.3.607.85.607a4,4,0,0,1,2.35.383,4.4,4.4,0,0,1,1.723,1.8,9.55,9.55,0,0,1,1.151,3.891,10.771,10.771,0,0,1-.3,2.01c-.079.414-.119.531-.431.723-.639.392-3.439.432-4.175-.562a7.752,7.752,0,0,1-.927-2.414A34.817,34.817,0,0,1,899.081,1253.2Z" transform="translate(-806.142 -1044.858)" fill="#e50019" fill-rule="evenodd"/>
    <path id="Path_168" data-name="Path 168" d="M889.424,1243.06c0,.227.46,1.4,1.275,1.4a1.54,1.54,0,0,0,.583-.145,5.838,5.838,0,0,1,.631-.158,8.5,8.5,0,0,1,.625,3.323c.218,1.718.225,7.438.225,9.615a37.892,37.892,0,0,0,.381,5.572,6.634,6.634,0,0,0,2.033,3.859,5.331,5.331,0,0,0,4.51,1.989,6.187,6.187,0,0,0,2.395-.52,8.7,8.7,0,0,0,2.246-1.4,26.539,26.539,0,0,0,3.543-3.078l1.048-1.138a9.582,9.582,0,0,0,2.186-6.5,7.236,7.236,0,0,0-1.1-3.693,4.912,4.912,0,0,0-.664-.976c-1.457-1.844-4.061-3.008-6.35-1.933l-1.031.608c-.432.267-2.73,1.87-2.935,1.924,0-2.439-.061-4.706-.061-7.107,0-1.2-.061-2.277-.061-3.523,0-1.411.074-2.247-.771-2.873a2.417,2.417,0,0,0-2.716-.068,5.976,5.976,0,0,0-.5.348l-4.66,3.479C889.971,1242.265,889.424,1242.5,889.424,1243.06Zm9.657,10.144c.137.158.3.607.85.607a4,4,0,0,1,2.35.383,4.4,4.4,0,0,1,1.723,1.8,9.55,9.55,0,0,1,1.151,3.891,10.771,10.771,0,0,1-.3,2.01c-.079.414-.119.531-.431.723-.639.392-3.439.432-4.175-.562a7.752,7.752,0,0,1-.927-2.414A34.817,34.817,0,0,1,899.081,1253.2Z" transform="translate(-806.142 -1044.858)" fill="none"/>
    <path id="Path_169" data-name="Path 169" d="M1739.357,1456.174c0,.491.337,1.7,1.033,1.7.948,0,.548-.547,1.275-.547.353,0,.691,1.363.778,1.713.175.708.345,1.258.513,1.977.07.3.169.6.243.972.281,1.41.516,2.756.871,4.17.551,2.2.682,5.443,3.365,5.443,1.561,0,2.716-1.457,3.724-2.654l2.835-3.6.113,2.985c.054.479-.018,1.077.009,1.571l.061,1.518c0,1.074.056,1.991.061,3.1,0,.545-.061.925-.061,1.518v2.673c0,.611.619.929,1.475.625.314-.112.574-.235.886-.329l3.692-1.288c.779-.266.567-.984.567-2.288l-.063-1.577c-.016-.535,0-1.1,0-1.642,0-.613-.062-.984-.061-1.579,0-1.137-.061-2.086-.061-3.22l-.074-14.685c-.19-.96-1.435-.784-2.288-.676-.664.084-.977,1.328-1.484,2.342-.148.3-.258.524-.417.8l-1.344,2.483c-.164.3-.272.487-.441.774a16.218,16.218,0,0,1-3.305,4.287c-.228.176-.433.457-.789.486a6.664,6.664,0,0,0-.268-.644c-.325-.938-1.563-7.459-1.823-8.867a2.087,2.087,0,0,0-.595-1.348,2.423,2.423,0,0,0-2.882-.3c-.187.09-.292.128-.45.219-.173.1-.268.163-.461.268-.584.318-3.461,2.329-4.065,2.8C1739.706,1455.52,1739.357,1455.824,1739.357,1456.174Z" transform="translate(-1614.654 -1248.313)" fill="#e50019" fill-rule="evenodd"/>
    <path id="Path_170" data-name="Path 170" d="M1739.357,1456.174c0,.491.337,1.7,1.033,1.7.948,0,.548-.547,1.275-.547.353,0,.691,1.363.778,1.713.175.708.345,1.258.513,1.977.07.3.169.6.243.972.281,1.41.516,2.756.871,4.17.551,2.2.682,5.443,3.365,5.443,1.561,0,2.716-1.457,3.724-2.654l2.835-3.6.113,2.985c.054.479-.018,1.077.009,1.571l.061,1.518c0,1.074.056,1.991.061,3.1,0,.545-.061.925-.061,1.518v2.673c0,.611.619.929,1.475.625.314-.112.574-.235.886-.329l3.692-1.288c.779-.266.567-.984.567-2.288l-.063-1.577c-.016-.535,0-1.1,0-1.642,0-.613-.062-.984-.061-1.579,0-1.137-.061-2.086-.061-3.22l-.074-14.685c-.19-.96-1.435-.784-2.288-.676-.664.084-.977,1.328-1.484,2.342-.148.3-.258.524-.417.8l-1.344,2.483c-.164.3-.272.487-.441.774a16.218,16.218,0,0,1-3.305,4.287c-.228.176-.433.457-.789.486a6.664,6.664,0,0,0-.268-.644c-.325-.938-1.563-7.459-1.823-8.867a2.087,2.087,0,0,0-.595-1.348,2.423,2.423,0,0,0-2.882-.3c-.187.09-.292.128-.45.219-.173.1-.268.163-.461.268-.584.318-3.461,2.329-4.065,2.8C1739.706,1455.52,1739.357,1455.824,1739.357,1456.174Z" transform="translate(-1614.654 -1248.313)" fill="none"/>
    <path id="Path_171" data-name="Path 171" d="M2199.218,1916.794v2.43a1.24,1.24,0,0,0,.335.818,1.173,1.173,0,0,0,.758.4h53.567a1.2,1.2,0,0,0,1.033-1.093v-2.673a1.144,1.144,0,0,0-1.154-1.093h-53.385A1.252,1.252,0,0,0,2199.218,1916.794Z" transform="translate(-2052.105 -1689.557)" fill="#e50019" fill-rule="evenodd"/>
    <path id="Path_172" data-name="Path 172" d="M2199.218,1916.794v2.43a1.24,1.24,0,0,0,.335.818,1.173,1.173,0,0,0,.758.4h53.567a1.2,1.2,0,0,0,1.033-1.093v-2.673a1.144,1.144,0,0,0-1.154-1.093h-53.385A1.252,1.252,0,0,0,2199.218,1916.794Z" transform="translate(-2052.105 -1689.557)" fill="none"/>
    <path id="Path_173" data-name="Path 173" d="M2203.1,1460.656c0,.613-.024.517.363,1.034.739.988,1.272-.03,2.1.079a2.361,2.361,0,0,1,1.1.543,3.771,3.771,0,0,1,.822.818l.713.927a13.651,13.651,0,0,0-4.568,1.628l-2.24,1.708a7,7,0,0,0-2.181,4.257c0,2.191,1.763,3.573,3.65,4.185a9.947,9.947,0,0,0,1.052.224,5.829,5.829,0,0,0,5.03-1.175c.165-.136.274-.208.447-.343l2.318-2.177c.8-.8.849-.973.095-1.887-.865-1.048-1.126.08-3.178.08a4.054,4.054,0,0,1-3.08-.929,4.509,4.509,0,0,1-.452-.458.964.964,0,0,1-.131-.691c.287-.643,2.333-.35,2.909-.266a8.684,8.684,0,0,1,2.455.825c1.943.972,2.773,2.952,3.6,4.6a17.364,17.364,0,0,0,.994,2.286c.605.613,1.337-.037,2.1-.61.64-.48,1.279-.889,1.917-1.363.59-.439,1.71-.99,1.71-1.631a12.685,12.685,0,0,0-1.073-2.328l-.714-1.412c-.054-.123-.076-.175-.134-.29-.116-.229-.229-.365-.325-.587l-1.483-2.769a55.326,55.326,0,0,0-3.056-4.658,24.386,24.386,0,0,0-2.31-2.914,5.363,5.363,0,0,0-.43-.42,4.074,4.074,0,0,0-1.08-.621,2.511,2.511,0,0,0-2.259.339,17.55,17.55,0,0,0-2.666,2.011l-1.431,1.242C2203.476,1460.108,2203.1,1460.289,2203.1,1460.656Z" transform="translate(-2052.105 -1252.553)" fill="#e50019" fill-rule="evenodd"/>
    <path id="Path_174" data-name="Path 174" d="M2203.1,1460.656c0,.613-.024.517.363,1.034.739.988,1.272-.03,2.1.079a2.361,2.361,0,0,1,1.1.543,3.771,3.771,0,0,1,.822.818l.713.927a13.651,13.651,0,0,0-4.568,1.628l-2.24,1.708a7,7,0,0,0-2.181,4.257c0,2.191,1.763,3.573,3.65,4.185a9.947,9.947,0,0,0,1.052.224,5.829,5.829,0,0,0,5.03-1.175c.165-.136.274-.208.447-.343l2.318-2.177c.8-.8.849-.973.095-1.887-.865-1.048-1.126.08-3.178.08a4.054,4.054,0,0,1-3.08-.929,4.509,4.509,0,0,1-.452-.458.964.964,0,0,1-.131-.691c.287-.643,2.333-.35,2.909-.266a8.684,8.684,0,0,1,2.455.825c1.943.972,2.773,2.952,3.6,4.6a17.364,17.364,0,0,0,.994,2.286c.605.613,1.337-.037,2.1-.61.64-.48,1.279-.889,1.917-1.363.59-.439,1.71-.99,1.71-1.631a12.685,12.685,0,0,0-1.073-2.328l-.714-1.412c-.054-.123-.076-.175-.134-.29-.116-.229-.229-.365-.325-.587l-1.483-2.769a55.326,55.326,0,0,0-3.056-4.658,24.386,24.386,0,0,0-2.31-2.914,5.363,5.363,0,0,0-.43-.42,4.074,4.074,0,0,0-1.08-.621,2.511,2.511,0,0,0-2.259.339,17.55,17.55,0,0,0-2.666,2.011l-1.431,1.242C2203.476,1460.108,2203.1,1460.289,2203.1,1460.656Z" transform="translate(-2052.105 -1252.553)" fill="none"/>
    <path id="Path_175" data-name="Path 175" d="M506.917,1461.369c0,.342.566,1.276,1.093,1.276.9,0,.979-.905,2.516.156a6.259,6.259,0,0,1,1.493,1.787,12.734,12.734,0,0,0-5.441,2.273c-.144.108-.145.133-.3.243l-1.619,1.479a7.231,7.231,0,0,0-1.564,3.659,4.213,4.213,0,0,0,1.882,3.281c1.591,1.144,4.711,1.634,6.46.749a6.781,6.781,0,0,0,1.4-.852,14.407,14.407,0,0,0,1.574-1.4c.37-.366,1.808-1.511,1.808-2.018,0-.589-.74-1.494-1.367-1.425-.769.086-.558.514-2.7.514a3.88,3.88,0,0,1-2.716-.928,4.744,4.744,0,0,1-.452-.459c-.281-.433-.247-.893.459-1.018a8.027,8.027,0,0,1,4.2.608c1.738.694,2.451,1.831,3.366,3.194.228.339,1.144,2.386,1.31,2.82.348.908.492,2.109,2.1.895l3.381-2.389c1.279-.864.673-1.276-.029-2.681l-2.429-4.738c-.142-.281-.281-.457-.425-.729l-.445-.77c-.327-.614-1.485-2.354-1.87-2.928a41.934,41.934,0,0,0-3.144-4.083c-.247-.207-.35-.34-.616-.539-2.284-1.71-4.271.644-6.143,2.153l-1.32,1.109A1.176,1.176,0,0,0,506.917,1461.369Z" transform="translate(-438.636 -1253.083)" fill="#e50019" fill-rule="evenodd"/>
    <path id="Path_176" data-name="Path 176" d="M506.917,1461.369c0,.342.566,1.276,1.093,1.276.9,0,.979-.905,2.516.156a6.259,6.259,0,0,1,1.493,1.787,12.734,12.734,0,0,0-5.441,2.273c-.144.108-.145.133-.3.243l-1.619,1.479a7.231,7.231,0,0,0-1.564,3.659,4.213,4.213,0,0,0,1.882,3.281c1.591,1.144,4.711,1.634,6.46.749a6.781,6.781,0,0,0,1.4-.852,14.407,14.407,0,0,0,1.574-1.4c.37-.366,1.808-1.511,1.808-2.018,0-.589-.74-1.494-1.367-1.425-.769.086-.558.514-2.7.514a3.88,3.88,0,0,1-2.716-.928,4.744,4.744,0,0,1-.452-.459c-.281-.433-.247-.893.459-1.018a8.027,8.027,0,0,1,4.2.608c1.738.694,2.451,1.831,3.366,3.194.228.339,1.144,2.386,1.31,2.82.348.908.492,2.109,2.1.895l3.381-2.389c1.279-.864.673-1.276-.029-2.681l-2.429-4.738c-.142-.281-.281-.457-.425-.729l-.445-.77c-.327-.614-1.485-2.354-1.87-2.928a41.934,41.934,0,0,0-3.144-4.083c-.247-.207-.35-.34-.616-.539-2.284-1.71-4.271.644-6.143,2.153l-1.32,1.109A1.176,1.176,0,0,0,506.917,1461.369Z" transform="translate(-438.636 -1253.083)" fill="none"/>
    <path id="Path_177" data-name="Path 177" d="M1011.555,693.888l.892.626c.164.1.19.135.323.224l2-2.855a10.292,10.292,0,0,1,1.279.847l.786.55c-.507.958-2.081,2.179-.184,2.674,2.048.535,4.65.108,6.738-.067.384-.032.864-.116,1.281-.116a3.477,3.477,0,0,1,.145-.827,4.769,4.769,0,0,0,.158-.814c-.455.106-.864.249-1.286.353a34.824,34.824,0,0,1-4.544.376,3.6,3.6,0,0,0-.3-2.126,3.253,3.253,0,0,0,1.627-.742l.755-.824a4.705,4.705,0,0,0,.777-1.653c.172.046,2.125,1.429,2.387,1.622l1.212.854c.333.234.355.158,1.259-.289.305-.151.676-.267.973-.424a17.557,17.557,0,0,0-2.065-1.519c-.373-.264-6.126-4.367-6.377-4.434.241-.455.954-1.285,1.032-1.579a5.2,5.2,0,0,0-1.154-.85,2.267,2.267,0,0,0-.511.643c-.177.243-.3.441-.478.677s-.3.442-.478.676c-.094.127-.155.228-.245.362-.1.152-.149.2-.256.351l-5.271,7.545A2.965,2.965,0,0,0,1011.555,693.888Zm6.741-1.883a7.968,7.968,0,0,1-1.214-.79c-.409-.269-.807-.577-1.215-.85a9.959,9.959,0,0,1,.583-.874l1.846-2.588,1.982,1.358c.1.081.2.137.2.281a4.285,4.285,0,0,1-1.32,2.871C1019.027,691.55,1018.493,692.005,1018.3,692.005Z" transform="translate(-922.321 -516.946)" fill="#e50019" fill-rule="evenodd"/>
    <path id="Path_178" data-name="Path 178" d="M1011.555,693.888l.892.626c.164.1.19.135.323.224l2-2.855a10.292,10.292,0,0,1,1.279.847l.786.55c-.507.958-2.081,2.179-.184,2.674,2.048.535,4.65.108,6.738-.067.384-.032.864-.116,1.281-.116a3.477,3.477,0,0,1,.145-.827,4.769,4.769,0,0,0,.158-.814c-.455.106-.864.249-1.286.353a34.824,34.824,0,0,1-4.544.376,3.6,3.6,0,0,0-.3-2.126,3.253,3.253,0,0,0,1.627-.742l.755-.824a4.705,4.705,0,0,0,.777-1.653c.172.046,2.125,1.429,2.387,1.622l1.212.854c.333.234.355.158,1.259-.289.305-.151.676-.267.973-.424a17.557,17.557,0,0,0-2.065-1.519c-.373-.264-6.126-4.367-6.377-4.434.241-.455.954-1.285,1.032-1.579a5.2,5.2,0,0,0-1.154-.85,2.267,2.267,0,0,0-.511.643c-.177.243-.3.441-.478.677s-.3.442-.478.676c-.094.127-.155.228-.245.362-.1.152-.149.2-.256.351l-5.271,7.545A2.965,2.965,0,0,0,1011.555,693.888Zm6.741-1.883a7.968,7.968,0,0,1-1.214-.79c-.409-.269-.807-.577-1.215-.85a9.959,9.959,0,0,1,.583-.874l1.846-2.588,1.982,1.358c.1.081.2.137.2.281a4.285,4.285,0,0,1-1.32,2.871C1019.027,691.55,1018.493,692.005,1018.3,692.005Z" transform="translate(-922.321 -516.946)" fill="none"/>
    <path id="Path_179" data-name="Path 179" d="M1734.826,646.534a2.833,2.833,0,0,0,.318.35c.131.148.154.215.3.365a7.311,7.311,0,0,1,.68.717l2.3,2.439c.163.162.193.235.334.4.348.395,1.082,1.041,1.351,1.443a5.266,5.266,0,0,1-.7.692l-.327.28-.8-.9c-.107-.115-.192-.19-.3-.3l-.546-.608c-.191-.207-.376-.374-.578-.576l-.547-.607c-.18-.2-.38-.38-.577-.578-.261-.262-.273-.351-.673-.481a2.338,2.338,0,0,0-2.695.6,3.544,3.544,0,0,0-.937,1.553,14.77,14.77,0,0,0-.538,3.167c-.014.46-.256,1.265.007,1.755a4.255,4.255,0,0,0,1.451.736c0-1.526-.6-3,.324-4.839.449-.9,1.266-1.675,2.2-.968l2.133,2.3a7.035,7.035,0,0,1,.867.956l-2.019,1.807c-.1.092-.173.172-.273.273l-1.7,1.579a3.789,3.789,0,0,1-.561.532c.115.24.334,1.562.547,2,.246-.066.573-.516.981-.841l6.611-6.144,1.458,1.579a4.6,4.6,0,0,0,1.093-1.033l-.988-1.077c-.2-.2-.28-.346-.484-.548l-3.251-3.491c-.1-.107-.168-.17-.272-.274-.377-.376-.656-.719-1.033-1.093l-1.488-1.61c-.181-.181-.431-.33-.5-.592A4.349,4.349,0,0,0,1734.826,646.534Z" transform="translate(-1606.479 -481.376)" fill="#e50019" fill-rule="evenodd"/>
    <path id="Path_180" data-name="Path 180" d="M1734.826,646.534a2.833,2.833,0,0,0,.318.35c.131.148.154.215.3.365a7.311,7.311,0,0,1,.68.717l2.3,2.439c.163.162.193.235.334.4.348.395,1.082,1.041,1.351,1.443a5.266,5.266,0,0,1-.7.692l-.327.28-.8-.9c-.107-.115-.192-.19-.3-.3l-.546-.608c-.191-.207-.376-.374-.578-.576l-.547-.607c-.18-.2-.38-.38-.577-.578-.261-.262-.273-.351-.673-.481a2.338,2.338,0,0,0-2.695.6,3.544,3.544,0,0,0-.937,1.553,14.77,14.77,0,0,0-.538,3.167c-.014.46-.256,1.265.007,1.755a4.255,4.255,0,0,0,1.451.736c0-1.526-.6-3,.324-4.839.449-.9,1.266-1.675,2.2-.968l2.133,2.3a7.035,7.035,0,0,1,.867.956l-2.019,1.807c-.1.092-.173.172-.273.273l-1.7,1.579a3.789,3.789,0,0,1-.561.532c.115.24.334,1.562.547,2,.246-.066.573-.516.981-.841l6.611-6.144,1.458,1.579a4.6,4.6,0,0,0,1.093-1.033l-.988-1.077c-.2-.2-.28-.346-.484-.548l-3.251-3.491c-.1-.107-.168-.17-.272-.274-.377-.376-.656-.719-1.033-1.093l-1.488-1.61c-.181-.181-.431-.33-.5-.592A4.349,4.349,0,0,0,1734.826,646.534Z" transform="translate(-1606.479 -481.376)" fill="none"/>
    <path id="Path_181" data-name="Path 181" d="M1485.124,559.815c.524.044,1.159.175,1.706.238.737.085,1.333.005,1.553.39a1.9,1.9,0,0,1-.118,1.541.814.814,0,0,1-.519.453c-1.295.465-2.136-.184-2.136.293a3.568,3.568,0,0,0,1.415,3.323,4.722,4.722,0,0,0,4.3,1l.9-.312a13.474,13.474,0,0,0-.192,1.631,15.209,15.209,0,0,1-.233,1.589l1.294,1.013a1.485,1.485,0,0,0,.467.323c.073-.87.214-1.7.309-2.546l.619-5.151c.048-.386.11-.87.169-1.289.054-.384.148-.91.179-1.279.581,0,1.291.23,1.883.243,0-.513.172-1.03.182-1.519-.239-.02-.547-.089-.794-.117l-5.748-.69c-1.043-.129-2.193-.351-3.294-.41l-1.62-.214c-.175-.008-.144-.106-.2.155Zm4.494.607,2.464.269a5.472,5.472,0,0,0,.876.1c-.033.395-.118.938-.164,1.293-.064.488-.1.858-.173,1.345-.172,1.183.125,1.225-1.25,1.788a4.126,4.126,0,0,1-3.58-.17c-.351-.212-.618-.336-.725-.794a2.94,2.94,0,0,0,2.6-1.043A2.486,2.486,0,0,0,1489.619,560.422Z" transform="translate(-1372.811 -398.422)" fill="#e50019" fill-rule="evenodd"/>
    <path id="Path_182" data-name="Path 182" d="M1485.124,559.815c.524.044,1.159.175,1.706.238.737.085,1.333.005,1.553.39a1.9,1.9,0,0,1-.118,1.541.814.814,0,0,1-.519.453c-1.295.465-2.136-.184-2.136.293a3.568,3.568,0,0,0,1.415,3.323,4.722,4.722,0,0,0,4.3,1l.9-.312a13.474,13.474,0,0,0-.192,1.631,15.209,15.209,0,0,1-.233,1.589l1.294,1.013a1.485,1.485,0,0,0,.467.323c.073-.87.214-1.7.309-2.546l.619-5.151c.048-.386.11-.87.169-1.289.054-.384.148-.91.179-1.279.581,0,1.291.23,1.883.243,0-.513.172-1.03.182-1.519-.239-.02-.547-.089-.794-.117l-5.748-.69c-1.043-.129-2.193-.351-3.294-.41l-1.62-.214c-.175-.008-.144-.106-.2.155Zm4.494.607,2.464.269a5.472,5.472,0,0,0,.876.1c-.033.395-.118.938-.164,1.293-.064.488-.1.858-.173,1.345-.172,1.183.125,1.225-1.25,1.788a4.126,4.126,0,0,1-3.58-.17c-.351-.212-.618-.336-.725-.794a2.94,2.94,0,0,0,2.6-1.043A2.486,2.486,0,0,0,1489.619,560.422Z" transform="translate(-1372.811 -398.422)" fill="none"/>
    <path id="Path_183" data-name="Path 183" d="M1254.571,611.422a1.905,1.905,0,0,0,2.065,2.065,3.972,3.972,0,0,0,1.526-.174,3.5,3.5,0,0,1,.9-.251,2.637,2.637,0,0,0,.243.729l-1.1.417c-.981.391-1.169.711-.31,1.482.754.676,5.42,2.341,3.659-.987.123-.059.254-.079.408-.138l3.114-1.137-.546-1.519c-.262.061-.554.217-.842.312-.312.1-.562.208-.884.331l-1.336.487c-.178.066-.321.079-.461.146l-1.352-3.143a3.054,3.054,0,0,0-2.049-.684C1256.4,609.357,1254.571,610.283,1254.571,611.422Zm1.64.3c0-.848,1.141-1.154,1.579-1.154.4,0,.445.292.556.6a3.414,3.414,0,0,1,.294.92C1258.12,612.34,1256.211,612.573,1256.211,611.726Z" transform="translate(-1153.494 -446.992)" fill="#e50019" fill-rule="evenodd"/>
    <path id="Path_184" data-name="Path 184" d="M1254.571,611.422a1.905,1.905,0,0,0,2.065,2.065,3.972,3.972,0,0,0,1.526-.174,3.5,3.5,0,0,1,.9-.251,2.637,2.637,0,0,0,.243.729l-1.1.417c-.981.391-1.169.711-.31,1.482.754.676,5.42,2.341,3.659-.987.123-.059.254-.079.408-.138l3.114-1.137-.546-1.519c-.262.061-.554.217-.842.312-.312.1-.562.208-.884.331l-1.336.487c-.178.066-.321.079-.461.146l-1.352-3.143a3.054,3.054,0,0,0-2.049-.684C1256.4,609.357,1254.571,610.283,1254.571,611.422Zm1.64.3c0-.848,1.141-1.154,1.579-1.154.4,0,.445.292.556.6a3.414,3.414,0,0,1,.294.92C1258.12,612.34,1256.211,612.573,1256.211,611.726Z" transform="translate(-1153.494 -446.992)" fill="none"/>
    <path id="Path_185" data-name="Path 185" d="M1339.316,577.983a14.148,14.148,0,0,0,1.482,1.058,4.008,4.008,0,0,0,.909-.307c.185-.063.285-.093.457-.151s.328-.137.493-.175a1.039,1.039,0,0,0-.1-.383l-.383-1.075-2.144.771A4.773,4.773,0,0,1,1339.316,577.983Z" transform="translate(-1234.109 -416.165)" fill="#e50019" fill-rule="evenodd"/>
    <path id="Path_186" data-name="Path 186" d="M1339.316,577.983a14.148,14.148,0,0,0,1.482,1.058,4.008,4.008,0,0,0,.909-.307c.185-.063.285-.093.457-.151s.328-.137.493-.175a1.039,1.039,0,0,0-.1-.383l-.383-1.075-2.144.771A4.773,4.773,0,0,1,1339.316,577.983Z" transform="translate(-1234.109 -416.165)" fill="none"/>
  </g>
</svg>
